# xmcd CD database file
#
# Track frame offsets:
#	150
#	28296
#	48906
#	65928
#	90434
#	109737
#	132888
#	160736
#
# Disc length: 2378 seconds
#
# Revision: 1
# Processed by: cddbd v1.5.2PL0 Copyright (c) Steve Scherf et al.
# Submitted via: CDex 1.70beta2
#
DISCID=68094808
DTITLE=The Band Of Mojo Drive - Jak Chcesz Zyc
DYEAR=2014
DGENRE=Blues
TTITLE0=The Band Of Mojo Drive - Jak Chcesz Zyc
TTITLE1=The Band Of Mojo Drive - Cudem
TTITLE2=The Band Of Mojo Drive - Miasto
TTITLE3=The Band Of Mojo Drive - Swiat Zwariowal
TTITLE4=The Band Of Mojo Drive - Slowo to Magia
TTITLE5=The Band Of Mojo Drive - Przelotny Romans
TTITLE6=The Band Of Mojo Drive - Kat Marzen
TTITLE7=The Band Of Mojo Drive - Soba
EXTD=YEAR: 2014
EXTT0=
EXTT1=
EXTT2=
EXTT3=
EXTT4=
EXTT5=
EXTT6=
EXTT7=
PLAYORDER=
